<svg xmlns="http://www.w3.org/2000/svg" viewBox="0 0 448.1 78.0" fill="none"><g transform="translate(-21.00,-26.00)"><path d="M53 30 L56 30 L53.43 39 L49.66 39 Z" fill="#F2E9D6"/><path d="M27 100 L48.17 43 L52.29 43 L36 100 Z" fill="#F2E9D6"/><path d="M93 100 L67 30 L64 30 L84 100 Z" fill="#F2E9D6"/><path d="M46 64 Q60 76 74 64" fill="none" stroke="#FF8C5A" stroke-width="2.8" stroke-linecap="round"/><circle cx="46" cy="64" r="2.7" fill="#FF8C5A"/><circle cx="74" cy="64" r="2.7" fill="#FF8C5A"/></g><g transform="translate(90.00,6.00) scale(0.0905)"><path d="M0 715V55H147V715ZM238 715 464 55H674L900 715H744L577 169H562L394 715ZM365 585V487H794V585Z" fill="#FF8C5A"/><path d="M1227 729Q1159 729 1108.0 709.0Q1057 689 1023.0 653.0Q989 617 972.0 567.5Q955 518 955 459Q955 397 972.5 345.5Q990 294 1024.0 256.0Q1058 218 1108.0 197.0Q1158 176 1222 176Q1286 176 1333.5 197.0Q1381 218 1410.5 255.5Q1440 293 1451 344L1318 387Q1315 356 1301.5 333.5Q1288 311 1265.5 299.5Q1243 288 1215 288Q1186 288 1165.0 299.5Q1144 311 1129.5 332.5Q1115 354 1107.5 384.5Q1100 415 1100 453Q1100 507 1114.5 544.5Q1129 582 1157.5 601.5Q1186 621 1228 621Q1268 621 1292.0 605.5Q1316 590 1327.5 565.5Q1339 541 1342 515L1468 543Q1463 582 1446.5 616.0Q1430 650 1400.0 675.0Q1370 700 1327.5 714.5Q1285 729 1227 729ZM1788 729Q1709 729 1649.0 697.5Q1589 666 1555.0 604.5Q1521 543 1521 451Q1521 359 1555.5 298.0Q1590 237 1650.5 206.5Q1711 176 1788 176Q1867 176 1927.5 207.0Q1988 238 2022.5 299.5Q2057 361 2057 453Q2057 546 2021.5 607.5Q1986 669 1925.5 699.0Q1865 729 1788 729ZM1793 622Q1832 622 1858.5 604.0Q1885 586 1898.5 549.5Q1912 513 1912 461Q1912 406 1897.5 367.5Q1883 329 1855.0 308.5Q1827 288 1784 288Q1747 288 1720.0 305.5Q1693 323 1679.0 359.5Q1665 396 1665 449Q1665 534 1699.0 578.0Q1733 622 1793 622ZM2337 729Q2245 729 2198.5 666.5Q2152 604 2152 476V190H2296V458Q2296 535 2319.0 572.5Q2342 610 2389 610Q2417 610 2438.0 596.0Q2459 582 2474.0 557.0Q2489 532 2496.5 498.0Q2504 464 2505 425V190H2649V501V715H2533L2532 551H2514Q2499 613 2476.5 652.5Q2454 692 2419.5 710.5Q2385 729 2337 729ZM3099 729Q3049 729 3012.0 709.5Q2975 690 2952.0 653.0Q2929 616 2920 563H2901L2900 715H2781V457V0H2925V172Q2925 196 2922.0 223.5Q2919 251 2913.5 280.0Q2908 309 2902 340H2924Q2937 290 2959.5 253.5Q2982 217 3017.0 197.5Q3052 178 3100 178Q3166 178 3214.0 212.0Q3262 246 3288.5 308.0Q3315 370 3315 455Q3315 538 3289.0 599.5Q3263 661 3214.5 695.0Q3166 729 3099 729ZM3048 611Q3084 611 3110.0 591.5Q3136 572 3150.0 536.0Q3164 500 3164 452Q3164 404 3150.5 369.0Q3137 334 3112.0 314.0Q3087 294 3051 294Q3027 294 3007.0 303.0Q2987 312 2972.0 327.5Q2957 343 2946.0 362.5Q2935 382 2930.0 403.0Q2925 424 2925 443V462Q2925 485 2932.0 511.5Q2939 538 2954.5 560.5Q2970 583 2993.0 597.0Q3016 611 3048 611ZM3542 729Q3498 729 3464.0 711.5Q3430 694 3411.0 661.0Q3392 628 3392 579Q3392 536 3408.5 507.0Q3425 478 3457.0 460.0Q3489 442 3536.0 430.0Q3583 418 3643 409Q3675 404 3695.5 399.5Q3716 395 3726.0 384.5Q3736 374 3736 354Q3736 326 3716.0 306.0Q3696 286 3653 286Q3624 286 3599.5 296.0Q3575 306 3557.5 326.0Q3540 346 3532 377L3405 338Q3417 297 3439.5 267.0Q3462 237 3494.0 216.5Q3526 196 3567.0 186.0Q3608 176 3656 176Q3733 176 3781.5 200.5Q3830 225 3854.0 276.5Q3878 328 3878 409V499Q3878 534 3879.5 570.0Q3881 606 3883.5 642.5Q3886 679 3889 715H3762Q3758 690 3754.5 657.5Q3751 625 3749 592H3731Q3717 630 3691.0 661.0Q3665 692 3627.5 710.5Q3590 729 3542 729ZM3603 625Q3622 625 3641.5 618.0Q3661 611 3679.5 598.5Q3698 586 3713.5 567.0Q3729 548 3739 524L3737 440L3760 445Q3742 458 3718.0 465.5Q3694 473 3668.5 477.0Q3643 481 3618.0 486.0Q3593 491 3573.5 499.0Q3554 507 3542.5 520.5Q3531 534 3531 558Q3531 589 3551.0 607.0Q3571 625 3603 625Z" fill="#F2E9D6"/></g></svg>
